<svg xmlns="http://www.w3.org/2000/svg" width="1em" height="1em" viewBox="0 0 48 48"><g fill="none"><path stroke="currentColor" stroke-linecap="round" stroke-linejoin="round" stroke-miterlimit="2" stroke-width="4" d="m4 35l2.5 1.351c1.6.865 3.4.865 5 0c1.6-.864 3.4-.864 5 0c1.6.865 3.4.865 5 0c1.6-.864 3.4-.864 5 0c1.6.865 3.4.865 5 0c1.6-.864 3.4-.864 5 0c1.6.865 3.4.865 5 0L44 35M4 41l2.5 1.351c1.6.865 3.4.865 5 0c1.6-.864 3.4-.864 5 0c1.6.865 3.4.865 5 0c1.6-.864 3.4-.864 5 0c1.6.865 3.4.865 5 0c1.6-.864 3.4-.864 5 0c1.6.865 3.4.865 5 0L44 41"/><path stroke="currentColor" stroke-miterlimit="2" stroke-width="4" d="M25 18a5 5 0 1 0 0-10a5 5 0 0 0 0 10Z"/><path stroke="currentColor" stroke-linecap="round" stroke-linejoin="round" stroke-miterlimit="2" stroke-width="4" d="m25 29l-1-4M4 11l7 11l13 2.93h18"/><path fill="currentColor" d="M11 10a3 3 0 1 0 0-6a3 3 0 0 0 0 6Z"/></g></svg>